<mxfile host="app.diagrams.net" modified="2024-08-09T09:17:59.541Z" agent="Mozilla/5.0 (Windows NT 10.0; Win64; x64) AppleWebKit/537.36 (KHTML, like Gecko) Chrome/112.0.0.0 Safari/537.36" version="24.6.0" etag="udSM7rQgvcajITuHymcQ" type="github">
  <diagram name="第 1 页" id="VTAUhPHFjqV-iyoxelCj">
    <mxGraphModel>
      <root>
        <mxCell id="0" />
        <mxCell id="1" parent="0" />
      </root>
    </mxGraphModel>
  </diagram>
</mxfile>
